<svg  width="114" height="27" viewBox="0 0 114 27" fill="none" xmlns="http://www.w3.org/2000/svg">
                        <path
                            d="M18.7952 0.835998L10.8392 11.636L2.88319 0.835998H0.255191L9.72319 13.724V26H11.9192V13.724L21.4232 0.835998H18.7952ZM33.7619 0.403999C26.0579 0.403999 19.7939 6.236 19.7939 13.4C19.7939 20.6 26.0579 26.432 33.7619 26.432C41.5019 26.432 47.7659 20.6 47.7659 13.4C47.7659 6.236 41.5019 0.403999 33.7619 0.403999ZM33.7619 24.416C27.2819 24.416 21.9899 19.484 21.9899 13.4C21.9899 7.352 27.2819 2.42 33.7619 2.42C40.2779 2.42 45.5699 7.352 45.5699 13.4C45.5699 19.484 40.2779 24.416 33.7619 24.416ZM67.4967 0.835998V19.304C67.4967 21.032 67.7487 22.472 67.7487 22.472C67.7487 22.472 66.9207 20.924 66.1647 19.844L52.5927 0.835998H50.8287V26H53.0247V7.532C53.0247 5.804 52.7727 4.364 52.7727 4.364C52.7727 4.364 53.6007 5.912 54.3927 6.992L67.9287 26H69.7287V0.835998H67.4967ZM90.5944 0.835998V19.304C90.5944 21.032 90.8464 22.472 90.8464 22.472C90.8464 22.472 90.0184 20.924 89.2624 19.844L75.6904 0.835998H73.9264V26H76.1224V7.532C76.1224 5.804 75.8704 4.364 75.8704 4.364C75.8704 4.364 76.6984 5.912 77.4904 6.992L91.0264 26H92.8264V0.835998H90.5944ZM113.62 2.816V0.799998H97.384V0.835998H97.06V26H97.384V26.036H113.62V24.02H99.256V14.3H112.684V12.284H99.256V2.816H113.62Z">
                        </path>
                    </svg>